<svg width="100" height="100" viewBox="0 0 80 80" xmlns="http://www.w3.org/2000/svg">
  <path d="M40 8 C40 8 14 36 14 52 C14 67 26 76 40 76 C54 76 66 67 66 52 C66 36 40 8 40 8Z" fill="#1A3D26"/>
  <ellipse cx="34" cy="38" rx="5" ry="6" fill="#F5C842"/>
  <ellipse cx="46" cy="38" rx="5" ry="6" fill="#FAD860"/>
  <ellipse cx="28" cy="51" rx="5" ry="6" fill="#F0B830"/>
  <ellipse cx="40" cy="51" rx="5" ry="6" fill="#F5C842"/>
  <ellipse cx="52" cy="51" rx="5" ry="6" fill="#F0B830"/>
  <ellipse cx="34" cy="63" rx="5" ry="5" fill="#E8A820"/>
  <ellipse cx="46" cy="63" rx="5" ry="5" fill="#F5C842"/>
  <circle cx="40" cy="9" r="4" fill="#1A3D26"/>
  <path d="M40 6 C40 6 50 -2 57 2 C57 2 49 5 40 6Z" fill="#2D6A3F"/>
</svg>
