<svg width="260" height="90" viewBox="0 0 260 90" xmlns="http://www.w3.org/2000/svg">
  <rect width="260" height="90" fill="#132D1E" rx="12"/>
  <path d="M40 19 C40 19 22 39 22 53 C22 64 30 73 40 73 C50 73 58 64 58 53 C58 39 40 19 40 19Z" fill="#2D6A3F"/>
  <ellipse cx="36" cy="42" rx="4" ry="5" fill="#F5C842"/>
  <ellipse cx="44" cy="42" rx="4" ry="5" fill="#FAD860"/>
  <ellipse cx="32" cy="52" rx="4" ry="5" fill="#F0B830"/>
  <ellipse cx="40" cy="52" rx="4" ry="5" fill="#F5C842"/>
  <ellipse cx="48" cy="52" rx="4" ry="5" fill="#F0B830"/>
  <ellipse cx="35" cy="62" rx="4" ry="4" fill="#E8A820"/>
  <ellipse cx="45" cy="62" rx="4" ry="4" fill="#F5C842"/>
  <circle cx="40" cy="20" r="3" fill="#2D6A3F"/>
  <path d="M40 17 C40 17 46 11 50 13 C50 13 44 15 40 17Z" fill="#4CAF72"/>
  <text x="72" y="50" font-family="sans-serif" font-size="26" font-weight="500" fill="#FFFFFF" letter-spacing="-0.5">Corn</text>
  <text x="136" y="50" font-family="sans-serif" font-size="26" font-weight="400" fill="#A8D8B0" letter-spacing="-0.5">Drop</text>
  <text x="72" y="67" font-family="sans-serif" font-size="11" font-weight="400" fill="#6BAF82" letter-spacing="0.04em">alimentação inteligente</text>
</svg>
