<svg width="260" height="80" viewBox="0 0 260 80" xmlns="http://www.w3.org/2000/svg">
  <rect width="260" height="80" fill="#F5F0E8" rx="12"/>
  <path d="M40 14 C40 14 22 34 22 48 C22 59 30 68 40 68 C50 68 58 59 58 48 C58 34 40 14 40 14Z" fill="#1A3D26"/>
  <ellipse cx="36" cy="37" rx="4" ry="5" fill="#F5C842"/>
  <ellipse cx="44" cy="37" rx="4" ry="5" fill="#F5C842"/>
  <ellipse cx="32" cy="47" rx="4" ry="5" fill="#F0B830"/>
  <ellipse cx="40" cy="47" rx="4" ry="5" fill="#F5C842"/>
  <ellipse cx="48" cy="47" rx="4" ry="5" fill="#F0B830"/>
  <ellipse cx="35" cy="57" rx="4" ry="4" fill="#E8A820"/>
  <ellipse cx="45" cy="57" rx="4" ry="4" fill="#F5C842"/>
  <circle cx="40" cy="15" r="3" fill="#1A3D26"/>
  <path d="M40 12 C40 12 46 6 50 8 C50 8 44 10 40 12Z" fill="#2D6A3F"/>
  <text x="72" y="45" font-family="sans-serif" font-size="26" font-weight="500" fill="#1A3D26" letter-spacing="-0.5">Corn</text>
  <text x="136" y="45" font-family="sans-serif" font-size="26" font-weight="400" fill="#2D6A3F" letter-spacing="-0.5">Drop</text>
  <text x="72" y="62" font-family="sans-serif" font-size="11" font-weight="400" fill="#5A8A6A" letter-spacing="0.04em">alimentação inteligente</text>
</svg>
